<?xml version="1.0" encoding="UTF-8"?>
<!DOCTYPE svg PUBLIC "-//W3C//DTD SVG 1.1//EN" "http://www.w3.org/Graphics/SVG/1.1/DTD/svg11.dtd">
<!-- Creator: CorelDRAW X7 -->
<svg xmlns="http://www.w3.org/2000/svg" xml:space="preserve" version="1.1" style="shape-rendering:geometricPrecision; text-rendering:geometricPrecision; image-rendering:optimizeQuality; fill-rule:evenodd; clip-rule:evenodd"
viewBox="17000 27500 66000 45000"
 xmlns:xlink="http://www.w3.org/1999/xlink">
 <defs>
  <style type="text/css">
   <![CDATA[
    .fil2 {fill:#2B2E29}
    .fil0 {fill:#2B2E29;fill-rule:nonzero}
    .fil1 {fill:#308A0A;fill-rule:nonzero}
   ]]>
  </style>
 </defs>
 <g id="Слой_x0020_1">
  <metadata id="CorelCorpID_0Corel-Layer"/>
  <path class="fil0" d="M79445 46496c778,0 1398,243 1861,729 463,486 694,1141 694,1966l0 4439 -2309 0 0 -3775c0,-400 -106,-714 -318,-944 -212,-230 -503,-345 -875,-345 -424,9 -759,158 -1005,449 -247,291 -370,670 -370,1139l0 3476 -2309 0 0 -9659 2309 0 0 3762c251,-408 573,-716 966,-924 394,-209 846,-313 1356,-313zm-7459 2656c-328,-486 -787,-729 -1375,-729 -415,0 -752,158 -1011,475 -260,317 -390,727 -390,1230 0,512 130,924 390,1237 259,312 596,468 1011,468 640,0 1098,-264 1375,-794l1699 976c-276,539 -691,955 -1245,1250 -553,295 -1202,443 -1945,443 -718,0 -1349,-148 -1894,-443 -545,-295 -967,-711 -1265,-1250 -298,-538 -447,-1162 -447,-1874 0,-720 151,-1356 454,-1907 302,-551 728,-976 1277,-1276 549,-299 1183,-449 1900,-449 701,0 1324,146 1868,436 545,291 969,701 1271,1230l-1673 977zm-7951 338c0,-408 -119,-735 -357,-983 -238,-247 -551,-371 -940,-371 -363,0 -668,122 -915,365 -246,243 -408,573 -486,989l2698 0zm-1310 -2981c1141,0 2019,339 2633,1016 614,677 921,1605 921,2785 0,183 -4,321 -13,417l-4877 0c112,399 307,705 583,918 277,212 614,318 1012,318 303,0 595,-60 876,-182 281,-121 538,-299 772,-534l1206 1211c-363,408 -802,718 -1317,931 -514,212 -1096,319 -1744,319 -753,0 -1410,-148 -1972,-443 -562,-295 -992,-711 -1291,-1250 -298,-538 -447,-1162 -447,-1874 0,-720 151,-1356 454,-1907 303,-551 731,-976 1284,-1276 553,-299 1193,-449 1920,-449zm-4151 6756c-259,148 -558,263 -895,345 -337,82 -679,124 -1025,124 -692,0 -1252,-200 -1680,-599 -428,-399 -642,-950 -642,-1653l0 -3020 -973 0 0 -1536 973 0 0 -1953 2296 0 0 1953 1816 0 0 1536 -1816 0 0 2655c0,495 203,742 610,742 251,0 549,-78 895,-234l441 1640z"/>
  <path class="fil1" d="M48781 52159c346,0 648,-85 908,-254 259,-169 423,-388 493,-658l0 -611 -1375 0c-649,0 -973,243 -973,729 0,243 84,436 253,579 168,143 400,215 694,215zm596 -5663c969,0 1721,224 2257,671 536,447 809,1074 818,1881l0 4582 -2270 0 0 -794c-467,598 -1172,898 -2115,898 -743,0 -1329,-202 -1757,-606 -428,-403 -642,-935 -642,-1594 0,-668 231,-1189 694,-1562 462,-373 1126,-564 1991,-573l1829 0 0 -78c0,-338 -115,-599 -344,-781 -229,-182 -560,-273 -992,-273 -295,0 -625,47 -993,143 -367,95 -737,234 -1109,416l-635 -1562c570,-260 1117,-453 1640,-579 524,-126 1066,-189 1628,-189zm-11375 91l2373 0 1466 4895 1479 -4895 2309 0 -2633 7043 -2374 0 -2620 -7043zm-3853 1797c-450,0 -813,160 -1089,481 -277,321 -415,742 -415,1263 0,529 138,955 415,1276 276,321 639,481 1089,481 458,0 826,-160 1103,-481 276,-321 415,-747 415,-1276 0,-521 -141,-942 -422,-1263 -281,-321 -646,-481 -1096,-481zm0 -1875c761,0 1431,150 2011,449 579,300 1029,721 1349,1263 320,542 480,1169 480,1881 0,720 -160,1352 -480,1894 -320,542 -770,963 -1349,1263 -580,299 -1250,449 -2011,449 -761,0 -1431,-150 -2010,-449 -580,-300 -1027,-721 -1343,-1263 -316,-542 -473,-1174 -473,-1894 0,-712 157,-1339 473,-1881 316,-542 763,-963 1343,-1263 579,-299 1249,-449 2010,-449zm-7367 -13c769,0 1385,243 1848,729 463,486 694,1141 694,1966l0 4439 -2296 0 0 -3775c0,-400 -108,-714 -324,-944 -217,-230 -506,-345 -869,-345 -381,9 -694,134 -941,377 -246,243 -391,565 -434,964l0 3723 -2309 0 0 -7043 2309 0 0 1146c250,-408 573,-716 966,-924 394,-209 845,-313 1356,-313zm-7563 -3150c355,0 647,115 876,345 229,230 344,527 344,892 0,356 -115,651 -344,885 -229,234 -521,351 -876,351 -354,0 -646,-117 -875,-351 -229,-234 -344,-529 -344,-885 0,-365 115,-662 344,-892 229,-230 521,-345 875,-345zm-1128 3241l2296 0 0 7043 -2296 0 0 -7043z"/>
  <path class="fil2" d="M50000 28305c3645,0 7079,900 10094,2488 -544,496 -961,1129 -1197,1844 -2668,-1370 -5692,-2143 -8897,-2143 -8797,0 -16233,5824 -18665,13827l-2277 0c2496,-9227 10926,-16016 20942,-16016zm16750 7908c1929,2342 3377,5094 4192,8108l-2277 0c-735,-2421 -1929,-4641 -3479,-6562 644,-373 1184,-906 1564,-1546zm4155 19605c-2543,9156 -10939,15877 -20905,15877 -9966,0 -18362,-6721 -20905,-15877l2282 0c2475,7931 9877,13688 18623,13688 8747,0 16148,-5757 18623,-13688l2282 0z"/>
  <path class="fil0" d="M60847 28305c2397,0 4339,1943 4339,4339 0,2396 -1942,4339 -4339,4339 -2396,0 -4339,-1943 -4339,-4339 0,-2396 1943,-4339 4339,-4339z"/>
 </g>
</svg>
